<svg xmlns="http://www.w3.org/2000/svg" width="22.735" height="17.681" viewBox="0 0 22.735 17.681">
  <path id="eye-solid" d="M11.39,32a11.106,11.106,0,0,0-7.6,3.181A15.637,15.637,0,0,0,.123,40.355a1.255,1.255,0,0,0,0,.971A15.637,15.637,0,0,0,3.789,46.5a11.106,11.106,0,0,0,7.6,3.181,11.106,11.106,0,0,0,7.6-3.181,15.756,15.756,0,0,0,3.67-5.174,1.255,1.255,0,0,0,0-.971,15.716,15.716,0,0,0-3.67-5.174A11.106,11.106,0,0,0,11.39,32ZM5.707,40.841a5.683,5.683,0,1,1,5.683,5.683A5.683,5.683,0,0,1,5.707,40.841Zm5.683-2.526a2.528,2.528,0,0,1-2.526,2.526,2.562,2.562,0,0,1-.8-.13A.336.336,0,0,0,7.6,41a3.662,3.662,0,0,0,.126.817,3.79,3.79,0,1,0,3.824-4.768.335.335,0,0,0-.292.462,2.562,2.562,0,0,1,.13.8Z" transform="translate(-0.025 -32)" fill="#6055e7"/>
</svg>
