<svg xmlns="http://www.w3.org/2000/svg" width="21.156" height="9.812" viewBox="0 0 21.156 9.812">
  <path id="Path_4" data-name="Path 4" d="M20.824,6.107a.705.705,0,0,1,.224.972,13.426,13.426,0,0,1-2.191,2.677l1.694,1.694a.705.705,0,1,1-1,1l-1.781-1.781A11.951,11.951,0,0,1,14.01,12.56l.634,2.365a.705.705,0,1,1-1.362.365l-.646-2.41a12.353,12.353,0,0,1-4.116,0l-.646,2.41a.705.705,0,0,1-1.362-.365l.634-2.365a11.95,11.95,0,0,1-3.762-1.894L1.6,12.447a.705.705,0,0,1-1-1L2.3,9.756A13.428,13.428,0,0,1,.107,7.079a.705.705,0,1,1,1.2-.747A11.883,11.883,0,0,0,3.755,9.163q.023.017.045.037a10.524,10.524,0,0,0,6.778,2.441,10.848,10.848,0,0,0,9.274-5.31A.705.705,0,0,1,20.824,6.107Z" transform="translate(0 -6)" fill="#6055e7" fill-rule="evenodd"/>
</svg>
