<svg xmlns="http://www.w3.org/2000/svg" width="49.77" height="42.244" viewBox="0 0 49.77 42.244">
  <g id="eye" transform="translate(-1.715 -3.22)">
    <path id="Path_203" data-name="Path 203" d="M26.263,17.342A8.922,8.922,0,1,1,17.342,8.42,8.913,8.913,0,0,1,26.263,17.342Z" transform="translate(9.259 7.013)" fill="none" stroke="#6055e7" stroke-linecap="round" stroke-linejoin="round" stroke-width="1"/>
    <path id="Path_204" data-name="Path 204" d="M26.6,44.964c8.8,0,17-5.184,22.7-14.155a13.272,13.272,0,0,0,0-12.934C43.6,8.9,35.4,3.72,26.6,3.72S9.6,8.9,3.9,17.875a13.272,13.272,0,0,0,0,12.934C9.6,39.781,17.8,44.964,26.6,44.964Z" transform="translate(0 0)" fill="none" stroke="#6055e7" stroke-linecap="round" stroke-linejoin="round" stroke-width="1"/>
  </g>
</svg>
