<svg xmlns="http://www.w3.org/2000/svg" width="45.241" height="44.025" viewBox="0 0 45.241 44.025">
  <g id="Style_Linear" data-name="Style=Linear" transform="translate(-0.5 -1.52)">
    <path id="Path_210" data-name="Path 210" d="M34.389,19.652A4.121,4.121,0,0,0,33.158,23a4.376,4.376,0,0,0,4.433,3.837h3.9v2.442a7.733,7.733,0,0,1-7.716,7.716H13.027a7.374,7.374,0,0,0,1.621-1.929,8.046,8.046,0,0,0,1.19-4.227A8.2,8.2,0,0,0,2.5,24.433V15.466A7.733,7.733,0,0,1,10.216,7.75H33.774a7.733,7.733,0,0,1,7.716,7.716v2.955H37.344A4.09,4.09,0,0,0,34.389,19.652Z" transform="translate(1.578 6.001)" fill="none" stroke="#6055e7" stroke-linecap="round" stroke-linejoin="round" stroke-width="1"/>
    <path id="Path_211" data-name="Path 211" d="M2.5,23.314V13.936A5.844,5.844,0,0,1,6.276,8.457L22.569,2.3a3.9,3.9,0,0,1,5.274,3.653v7.8" transform="translate(1.578)" fill="none" stroke="#6055e7" stroke-linecap="round" stroke-linejoin="round" stroke-width="1"/>
    <path id="Path_212" data-name="Path 212" d="M27.955,15.043v4.227A2.107,2.107,0,0,1,25.9,21.364H21.881a4.376,4.376,0,0,1-4.433-3.837,4.228,4.228,0,0,1,4.186-4.576H25.9A2.107,2.107,0,0,1,27.955,15.043Z" transform="translate(17.285 11.473)" fill="none" stroke="#6055e7" stroke-linecap="round" stroke-linejoin="round" stroke-width="1"/>
    <path id="Path_213" data-name="Path 213" d="M7,12H21.365" transform="translate(6.313 10.473)" fill="none" stroke="#6055e7" stroke-linecap="round" stroke-linejoin="round" stroke-width="1"/>
    <path id="Path_214" data-name="Path 214" d="M17.417,23.208a8.046,8.046,0,0,1-1.19,4.227,7.374,7.374,0,0,1-1.621,1.929,8.014,8.014,0,0,1-5.4,2.052A8.146,8.146,0,0,1,2.19,27.436,8.046,8.046,0,0,1,1,23.208a8.208,8.208,0,1,1,16.417,0Z" transform="translate(0 13.629)" fill="none" stroke="#6055e7" stroke-linecap="round" stroke-linejoin="round" stroke-miterlimit="10" stroke-width="1"/>
    <path id="Path_215" data-name="Path 215" d="M3.441,20.031l2.032,2.032L9.844,18.02" transform="translate(2.569 16.806)" fill="none" stroke="#6055e7" stroke-linecap="round" stroke-linejoin="round" stroke-width="1"/>
  </g>
</svg>
