<svg xmlns="http://www.w3.org/2000/svg" width="47.772" height="47.772" viewBox="0 0 47.772 47.772">
  <path id="mug-hot-solid" d="M8.039,0A2.187,2.187,0,0,0,5.846,2.192c0,3.554,2.138,5.426,3.572,6.678l.1.091c1.489,1.3,2.174,1.991,2.174,3.462a2.192,2.192,0,0,0,4.385,0c0-3.554-2.138-5.426-3.572-6.678l-.1-.091c-1.489-1.3-2.174-1.991-2.174-3.462A2.187,2.187,0,0,0,8.039,0ZM2.923,17.539A2.92,2.92,0,0,0,0,20.463V38a8.772,8.772,0,0,0,8.77,8.77H26.309A8.772,8.772,0,0,0,35.079,38h1.462a10.231,10.231,0,0,0,0-20.463H2.923Zm32.156,5.846h1.462a4.385,4.385,0,0,1,0,8.77H35.079ZM20.463,2.192a2.192,2.192,0,1,0-4.385,0c0,3.554,2.138,5.426,3.572,6.678l.1.091c1.489,1.3,2.174,1.991,2.174,3.462a2.192,2.192,0,1,0,4.385,0c0-3.554-2.138-5.426-3.572-6.678l-.1-.091C21.148,4.357,20.463,3.663,20.463,2.192Z" transform="translate(0.5 0.5)" fill="none" stroke="#6055e7" stroke-width="1"/>
</svg>
