<svg xmlns="http://www.w3.org/2000/svg" width="79.016" height="23.677" viewBox="0 0 79.016 23.677">
  <path id="elle-2" d="M30.377,0h-5.69V.184h1.468v23.31H24.687v.184h9.086V17.253h-.184c.015,2.877-.558,6.223-3.763,6.241h-.918V.184h1.468ZM7.158,7.158H6.975V8.627c-.042,2.3-1.38,2.733-2.753,2.753V.184h.918C7.793.2,8.94,2.3,8.9,6.424h.184V0H0V.184H1.56v23.31H0v.184H9.086V17.253H8.9c.038,2.877-.535,6.223-3.763,6.241H4.222V11.563c1.373.011,2.711.442,2.753,2.753v1.377h.184ZM77,7.158h-.184V8.627c0,2.3-1.338,2.733-2.753,2.753V.184h1.01c2.6.015,3.751,2.118,3.763,6.241h.184V0H69.839V.184H71.4v23.31h-1.56v.184h9.177V17.253h-.184c-.011,2.877-.585,6.223-3.763,6.241h-1.01V11.563c1.415.011,2.753.442,2.753,2.753v1.377H77ZM53.137,0h-5.69V.184h1.468v23.31H47.447v.184h9.086V17.253h-.184c.008,2.877-.566,6.223-3.763,6.241h-.918V.184h1.468V0Z" fill="#1c252f"/>
</svg>
